Coordinates
version=1
nRows=54
nColumns=12
inDegrees=yes

Units are S.I. units (second, meters, Newtons, ...)
Angles are in degrees

endheader
time	SC_y	SC_z	SC_x	AC_y	AC_z	AC_x	GH_y	GH_z	GH_yy	EL_x	PS_y
       0.0              -55.32          22.38          55.56          44.91         -14.05          14.85         -20.31           82.5          176.9          66.93          30.65
   0.02788              -55.32          22.38          55.56          44.91         -14.05          14.84         -20.32          82.49          176.9          66.94          30.66
   0.05576              -55.32          22.38          55.56          44.91         -14.05          14.84         -20.33          82.47          176.8          66.95          30.68
   0.08363              -55.32          22.38          55.56          44.91         -14.04          14.84         -20.34          82.46          176.8          66.96          30.69
    0.1115              -55.32          22.38          55.56          44.92         -14.04          14.83         -20.35          82.44          176.8          66.97           30.7
    0.1394              -55.31          22.38          55.56          44.92         -14.04          14.83         -20.37          82.42          176.8          66.98          30.72
    0.1673              -55.31          22.38          55.56          44.92         -14.04          14.82         -20.38          82.41          176.7          66.99          30.73
    0.1951              -55.31          22.38          55.55          44.92         -14.04          14.82         -20.39          82.38          176.7           67.0          30.75
     0.223              -55.31          22.38          55.55          44.93         -14.04          14.82         -20.41          82.36          176.7          67.01          30.77
    0.2509               -55.3          22.38          55.55          44.93         -14.03          14.81         -20.42          82.34          176.7          67.03          30.79
    0.2788               -55.3          22.38          55.55          44.93         -14.03           14.8         -20.44          82.32          176.6          67.04          30.81
    0.3067               -55.3          22.39          55.55          44.94         -14.03           14.8         -20.46          82.29          176.6          67.06          30.83
    0.3345              -55.29          22.39          55.55          44.94         -14.03          14.79         -20.48          82.26          176.5          67.08          30.86
    0.3624              -55.29          22.39          55.55          44.95         -14.02          14.79          -20.5          82.23          176.5          67.09          30.89
    0.3903              -55.28          22.39          55.55          44.95         -14.02          14.78         -20.52          82.19          176.4          67.11          30.91
    0.4182              -55.28          22.39          55.55          44.95         -14.02          14.77         -20.54          82.16          176.4          67.14          30.95
     0.446              -55.27          22.39          55.55          44.96         -14.01          14.76         -20.57          82.12          176.3          67.16          30.98
    0.4739              -55.27          22.39          55.54          44.97         -14.01          14.75          -20.6          82.07          176.3          67.19          31.02
    0.5018              -55.26          22.39          55.54          44.97         -14.01          14.74         -20.63          82.03          176.2          67.21          31.06
    0.5297              -55.25          22.39          55.54          44.98          -14.0          14.73         -20.66          81.97          176.1          67.24           31.1
    0.5576              -55.24          22.39          55.54          44.99          -14.0          14.72          -20.7          81.92          176.1          67.28          31.15
    0.5854              -55.24          22.39          55.54           45.0         -13.99           14.7         -20.74          81.85          176.0          67.32           31.2
    0.6133              -55.23          22.39          55.53           45.0         -13.99          14.69         -20.79          81.79          175.9          67.36          31.26
    0.6412              -55.22          22.39          55.53          45.02         -13.98          14.67         -20.84          81.71          175.8           67.4          31.33
    0.6691               -55.2          22.39          55.53          45.03         -13.97          14.65          -20.9          81.62          175.6          67.45           31.4
    0.6969              -55.19          22.39          55.53          45.04         -13.96          14.63         -20.96          81.53          175.5          67.51          31.48
    0.7248              -55.18          22.39          55.52          45.05         -13.95          14.61         -21.03          81.42          175.3          67.57          31.57
    0.7527              -55.16          22.39          55.52          45.07         -13.94          14.58         -21.11           81.3          175.2          67.65          31.68
    0.7806              -55.14          22.39          55.51          45.09         -13.93          14.55          -21.2          81.17          175.0          67.73          31.79
    0.8085              -55.12           22.4          55.51          45.11         -13.92          14.52          -21.3          81.01          174.8          67.82          31.92
    0.8363               -55.1           22.4           55.5          45.13          -13.9          14.48         -21.42          80.84          174.5          67.92          32.07
    0.8642              -55.07           22.4           55.5          45.16         -13.89          14.43         -21.56          80.63          174.2          68.04          32.25
    0.8921              -55.04           22.4          55.49          45.19         -13.87          14.38         -21.71           80.4          173.9          68.18          32.45
      0.92               -55.0           22.4          55.48          45.23         -13.84          14.32         -21.89          80.13          173.5          68.34          32.68
    0.9478              -54.96          22.41          55.47          45.27         -13.81          14.25          -22.1          79.81          173.0          68.53          32.95
    0.9757               -54.9          22.41          55.46          45.32         -13.78          14.17         -22.35          79.44          172.5          68.75          33.27
     1.004              -54.84          22.41          55.44          45.38         -13.74          14.07         -22.64           79.0          171.9          69.02          33.65
     1.031              -54.77          22.42          55.42          45.45          -13.7          13.95          -23.0          78.47          171.1          69.34           34.1
     1.059              -54.68          22.42           55.4          45.54         -13.64          13.81         -23.42          77.82          170.2          69.72          34.65
     1.087              -54.57          22.43          55.37          45.65         -13.57          13.64         -23.95          77.04          169.1          70.19          35.32
     1.115              -54.44          22.44          55.34          45.78         -13.49          13.42         -24.59          76.07          167.7          70.77          36.15
     1.143              -54.27          22.45           55.3          45.94         -13.38          13.16         -25.39          74.86          165.9          71.49          37.18
     1.171              -54.07          22.46          55.25          46.15         -13.25          12.82         -26.41          73.33          163.8          72.39          38.48
     1.199               -53.8          22.48          55.18          46.41         -13.08          12.39         -27.69           71.4          161.0          73.55          40.14
     1.227              -53.46           22.5           55.1          46.75         -12.87          11.84         -29.34          68.92          157.4          75.03          42.26
     1.254              -53.02          22.52          54.99          47.18         -12.59          11.14         -31.45          65.73          152.9          76.92          44.98
     1.282              -52.46          22.56          54.85          47.73         -12.24          10.24         -34.15          61.67          147.1          79.34          48.45
      1.31              -51.76           22.6          54.68          48.42         -11.79          9.113         -37.55          56.56          139.8          82.39          52.81
     1.338              -50.91          22.65          54.47          49.26         -11.25          7.737         -41.69          50.33          130.8           86.1          58.13
     1.366              -49.92          22.71          54.22          50.24         -10.62          6.142         -46.48          43.11          120.5           90.4           64.3
     1.394              -48.84          22.78          53.96          51.29         -9.943          4.414         -51.67           35.3          109.3          95.06          70.98
     1.422              -47.77          22.84          53.69          52.35         -9.263          2.687         -56.87          27.48          98.14          99.72          77.65
      1.45              -46.78           22.9          53.45          53.33         -8.636          1.092         -61.66          20.26          87.81          104.0          83.82
     1.478              -45.92          22.95          53.24          54.17         -8.094        -0.2847          -65.8          14.04          78.89          107.7          89.14
